<?xml version="1.0" encoding="UTF-8"?>
<svg id="Camada_1" data-name="Camada 1" xmlns="http://www.w3.org/2000/svg" viewBox="0 0 920.78 260.17">
  <defs>
    <style>
      .cls-1 {
        fill: #175ef1;
      }

      .cls-2 {
        fill: #fff;
      }
    </style>
  </defs>
  <path class="cls-1" d="M13,153.56c0-3.47,3.4-5.49,5.73-4.1l25.3,15.01,2.51,9.76,54.3,32.83c4.21,2.54,9.91,2.26,13.99-.23l53.22-32.37c1.7-6.51,1.42-12.72.45-19.72l-81.2-51.01c-2.43-1.53-1.7-6.45-.95-8.26,1.12-2.69,19.82-17.3,30.54-10.79l74.78,45.42c6.81,4.14,10.25,11.37,10.26,19.2l.04,31.36c.01,9.46-5.33,15.65-12.82,20.21l-63.95,38.98c-10.92,6.65-22.36,7.73-33.67.84l-67.07-40.94c-7.42-4.53-11.44-11.87-11.45-20.68v-25.52Z"/>
  <path class="cls-1" d="M98.57,50.07l-51.74,31.06c-1.78,7.77-2,15.19.07,22.5l77.86,48c3.13,1.93,5.5,4.09,5.41,7.29-.18,6.22-21.19,19.62-30.31,14.15l-71.99-43.1c-7.98-4.78-14.76-10.85-14.73-20.79l.07-33.3c.02-7.89,3.73-15.35,10.65-19.55L93.32,14.32c10.61-6.42,21.51-5.27,31.74,1l64.83,39.8c7.01,4.3,11.83,10.68,11.89,19.33l.2,27.68c.01,1.95-.89,3.24-1.89,4-.75.57-2.55,1.18-4,.29l-25.72-15.8-1.31-9.39-53.02-32.55c-5.01-3.07-12.19-1.77-17.47,1.4Z"/>
  <path class="cls-2" d="M418.3,221.96l-27.62.17V68.2s27.73-.34,27.73-.34c.02,4.07-.85,7.36,1.03,12.3,10.58-11.95,24.83-16.45,41.65-14.26,12.99,1.69,27.44,9.79,35.44,23.37,12.68,21.52,12.27,48.68-1.77,69.69-12.72,19.04-37.24,25.82-58.31,18.25-7.35-2.64-12.1-7-17.72-12.78l-.45,57.53ZM477.99,125.69c1.67-19.9-11.85-35.8-30.26-35.92-18.13-.11-31.06,15.95-30.07,34.75.91,17.28,12.89,31.06,30.09,31.16,15.73.09,28.76-12.32,30.24-29.99Z"/>
  <path class="cls-2" d="M748.06,180.29c-33.29-.01-56.96-25.25-57.01-57.15-.05-32.82,24.96-57.98,57.89-57.59,35.1.42,60.47,29.86,55.84,64.63-3.86,28.97-26.2,50.12-56.72,50.11ZM778.27,125.52c1.53-19.8-12.06-35.19-30.21-35.4-17.75-.2-30.57,14.74-30.42,32.97.14,17.7,11.57,31.1,28.72,32.21s30.5-11.62,31.9-29.78Z"/>
  <path class="cls-2" d="M600.72,115.16v62.67s-27.2-.12-27.2-.12v-109.4s26.8-.48,26.8-.48l.53,14.65c12.55-17.06,35.9-21.92,54.27-12.22,12.29,6.49,18.89,19.8,18.93,33.64l.23,73.81-26.87-.04-.29-66.66c-.06-12.81-9.75-21.37-22.08-20.92-13.72.5-24.34,10.12-24.33,25.06Z"/>
  <path class="cls-2" d="M353.58,175.91c-22.76,8.86-48.9,4.33-66.1-13.09l15.73-18c10.49,10.28,23.6,15.66,36.91,11.79,5.07-1.47,7.95-5.65,8.04-9.87.1-4.72-2.91-8.47-7.98-9.84l-23.33-6.3c-9.36-2.53-19.95-8.31-23.13-17.5-5.83-16.87-.14-34.4,15.42-41.96,20.54-9.97,45.32-6.03,61.89,9.45l-14.01,17.69c-9.32-8.13-20.79-12.46-32.6-8.55-4.58,1.52-7.18,5.45-6.67,9.68,1.95,16.37,61.89,6.21,56.41,50.18-1.42,11.44-8.54,21.65-20.56,26.32Z"/>
  <path class="cls-2" d="M872.84,178c-21.8,5.2-44.21,1.08-59.68-15.27l16.01-17.74c10.17,10.15,23.08,15.57,36.43,11.39,4.09-1.28,6.91-4.87,7.33-8.06.56-4.29-1.65-9.04-6.3-10.39l-24.16-7.03c-14.35-4.17-24.32-14.52-25.15-28.04-.88-14.42,5.82-27.08,19.92-32.94,19.48-8.09,42.26-4.29,58.79,9.92l-14.44,18.11c-8.78-8.2-19.28-11.52-30.39-8.78-4.73,1.17-7.96,4.42-8.02,8.65-.19,13.35,24.8,10.58,43.2,22.5,11.15,7.22,14.34,20.62,11.57,33.88-2.24,10.73-11.72,20.6-25.11,23.8Z"/>
  <polygon class="cls-2" points="550.27 177.16 522.91 177.61 522.76 68.15 550.13 67.88 550.27 177.16"/>
  <path class="cls-2" d="M528.07,49.7c-6.22-3.85-7.92-10.02-7.09-15.89.84-5.91,4.57-11.83,11.48-13.53,7.39-1.81,14.19,1.3,17.61,7.22s2.54,13.8-1.53,18.77c-4.95,6.04-13.3,7.87-20.47,3.43Z"/>
</svg>